<?xml version="1.0" encoding="utf-8"?>
<!-- Generator: Adobe Illustrator 24.1.2, SVG Export Plug-In . SVG Version: 6.00 Build 0)  -->
<svg version="1.1" id="Layer_1" xmlns="http://www.w3.org/2000/svg" xmlns:xlink="http://www.w3.org/1999/xlink" x="0px" y="0px"
	 viewBox="0 0 933 661" style="enable-background:new 0 0 933 661;" xml:space="preserve">
<style type="text/css">
	.st0{fill:none;stroke:#7620CD;stroke-width:10;}
	.st1{fill:none;stroke:#7620CD;stroke-width:21;}
	.st2{fill:#7620CD;}
	.st3{fill:#892DCB;}
	.st4{fill:none;stroke:#7620CD;stroke-width:3;}
	.st5{fill:none;stroke:#7620CD;stroke-width:5;}
</style>
<g>
	<line class="st0" x1="692" y1="390" x2="785" y2="390"/>
</g>
<g>
	<line class="st0" x1="428" y1="107" x2="342" y2="107"/>
</g>
<g>
	<path class="st1" d="M441,14l-1,93.2"/>
</g>
<g>
	<line class="st1" x1="440.6" y1="102.5" x2="496.9" y2="192.2"/>
</g>
<g>
	<line class="st1" x1="496.2" y1="188" x2="496.2" y2="320"/>
</g>
<g>
	<path class="st1" d="M496.2,314.8l-54.3,88"/>
</g>
<g>
	<line class="st1" x1="444.2" y1="398" x2="444.2" y2="544"/>
</g>
<g>
	<line class="st1" x1="440.9" y1="537.6" x2="513" y2="609.6"/>
</g>
<g>
	<line class="st0" x1="343.5" y1="108.5" x2="295.5" y2="60.5"/>
</g>
<g>
	<line class="st0" x1="299" y1="61" x2="226" y2="61"/>
</g>
<g>
	<line class="st0" x1="509" y1="198" x2="629" y2="198"/>
</g>
<g>
	<line class="st0" x1="624.9" y1="200.1" x2="660.9" y2="150.1"/>
</g>
<g>
	<line class="st0" x1="657.1" y1="152" x2="756" y2="153"/>
</g>
<g>
	<line class="st0" x1="507" y1="316" x2="621" y2="316"/>
</g>
<g>
	<line class="st0" x1="617.5" y1="313.5" x2="696.5" y2="392.5"/>
</g>
<g>
	<line class="st0" x1="433" y1="410" x2="290" y2="410"/>
</g>
<g>
	<line class="st0" x1="295.5" y1="411.5" x2="254.5" y2="370.5"/>
</g>
<g>
	<line class="st0" x1="258" y1="373" x2="159" y2="373"/>
</g>
<g>
	<line class="st0" x1="432" y1="550" x2="319" y2="551"/>
</g>
<g>
	<line class="st0" x1="321.5" y1="550.3" x2="258.5" y2="587.3"/>
</g>
<g>
	<line class="st0" x1="261" y1="587" x2="131" y2="586"/>
</g>
<circle class="st2" cx="439.6" cy="103.8" r="24.6"/>
<circle class="st3" cx="439.6" cy="103.8" r="11.8"/>
<circle class="st2" cx="446.7" cy="409.7" r="24.6"/>
<circle class="st3" cx="446.7" cy="409.7" r="11.8"/>
<circle class="st2" cx="494.1" cy="314.7" r="24.6"/>
<circle class="st3" cx="494.1" cy="314.7" r="11.8"/>
<circle class="st2" cx="494.1" cy="198.7" r="24.6"/>
<circle class="st3" cx="494.1" cy="198.7" r="11.8"/>
<circle class="st2" cx="446.7" cy="546.8" r="24.6"/>
<circle class="st3" cx="446.7" cy="546.8" r="11.8"/>
<g>
	<circle class="st4" cx="155" cy="131.4" r="3"/>
	<circle class="st4" cx="221.5" cy="60.9" r="3"/>
	<circle class="st4" cx="105.7" cy="63.9" r="3"/>
	<circle class="st4" cx="158" cy="23.7" r="3"/>
	<circle class="st4" cx="163.1" cy="121.4" r="3"/>
	<circle class="st4" cx="211.4" cy="52.9" r="3"/>
	<circle class="st4" cx="95.6" cy="55.9" r="3"/>
	<circle class="st4" cx="166.1" cy="13.6" r="3"/>
	<circle class="st4" cx="154" cy="112.3" r="3"/>
	<circle class="st4" cx="202.3" cy="61.9" r="3"/>
	<circle class="st4" cx="86.5" cy="64.9" r="3"/>
	<circle class="st4" cx="157" cy="4.5" r="3"/>
	<circle class="st4" cx="171.1" cy="131.4" r="3"/>
	<circle class="st4" cx="113.7" cy="24.7" r="3"/>
	<circle class="st4" cx="92.6" cy="5.5" r="3"/>
	<circle class="st4" cx="86.5" cy="15.6" r="3"/>
	<circle class="st4" cx="221.5" cy="44.8" r="3"/>
	<circle class="st4" cx="105.7" cy="47.8" r="3"/>
	<circle class="st4" cx="174.1" cy="23.7" r="3"/>
	<circle class="st4" cx="179.2" cy="121.4" r="3"/>
	<circle class="st4" cx="211.4" cy="36.7" r="3"/>
	<circle class="st4" cx="95.6" cy="39.8" r="3"/>
	<circle class="st4" cx="182.2" cy="13.6" r="3"/>
	<circle class="st4" cx="170.1" cy="112.3" r="3"/>
	<circle class="st4" cx="202.3" cy="45.8" r="3"/>
	<circle class="st4" cx="86.5" cy="48.8" r="3"/>
	<circle class="st4" cx="173.1" cy="4.5" r="3"/>
	<circle class="st4" cx="187.2" cy="131.4" r="3"/>
	<circle class="st4" cx="221.5" cy="28.7" r="3"/>
	<circle class="st4" cx="105.7" cy="31.7" r="3"/>
	<circle class="st4" cx="190.3" cy="23.7" r="3"/>
	<circle class="st4" cx="195.3" cy="121.4" r="3"/>
	<circle class="st4" cx="211.4" cy="20.6" r="3"/>
	<circle class="st4" cx="221.5" cy="12.6" r="3"/>
	<circle class="st4" cx="206.4" cy="4.5" r="3"/>
	<circle class="st4" cx="95.6" cy="23.7" r="3"/>
	<circle class="st4" cx="198.3" cy="13.6" r="3"/>
	<circle class="st4" cx="186.2" cy="112.3" r="3"/>
	<circle class="st4" cx="202.3" cy="29.7" r="3"/>
	<circle class="st4" cx="86.5" cy="32.7" r="3"/>
	<circle class="st4" cx="189.3" cy="4.5" r="3"/>
	<circle class="st4" cx="138.9" cy="131.4" r="3"/>
	<circle class="st4" cx="221.5" cy="77" r="3"/>
	<circle class="st4" cx="105.7" cy="80.1" r="3"/>
	<circle class="st4" cx="141.9" cy="23.7" r="3"/>
	<circle class="st4" cx="146.9" cy="121.4" r="3"/>
	<circle class="st4" cx="211.4" cy="69" r="3"/>
	<circle class="st4" cx="95.6" cy="72" r="3"/>
	<circle class="st4" cx="150" cy="13.6" r="3"/>
	<circle class="st4" cx="137.9" cy="112.3" r="3"/>
	<circle class="st4" cx="202.3" cy="78" r="3"/>
	<circle class="st4" cx="86.5" cy="81.1" r="3"/>
	<circle class="st4" cx="140.9" cy="4.5" r="3"/>
	<circle class="st4" cx="106.7" cy="131.4" r="3"/>
	<circle class="st4" cx="221.5" cy="109.3" r="3"/>
	<circle class="st4" cx="211.4" cy="121.4" r="3"/>
	<circle class="st4" cx="202.3" cy="131.4" r="3"/>
	<circle class="st4" cx="103.6" cy="13.6" r="3"/>
	<circle class="st4" cx="105.7" cy="112.3" r="3"/>
	<circle class="st4" cx="95.6" cy="124.4" r="3"/>
	<circle class="st4" cx="114.7" cy="121.4" r="3"/>
	<circle class="st4" cx="211.4" cy="101.2" r="3"/>
	<circle class="st4" cx="95.6" cy="104.2" r="3"/>
	<circle class="st4" cx="117.7" cy="13.6" r="3"/>
	<circle class="st4" cx="105.7" cy="112.3" r="3"/>
	<circle class="st4" cx="202.3" cy="110.3" r="3"/>
	<circle class="st4" cx="86.5" cy="113.3" r="3"/>
	<circle class="st4" cx="108.7" cy="4.5" r="3"/>
	<circle class="st4" cx="122.8" cy="131.4" r="3"/>
	<circle class="st4" cx="221.5" cy="93.2" r="3"/>
	<circle class="st4" cx="105.7" cy="96.2" r="3"/>
	<circle class="st4" cx="125.8" cy="23.7" r="3"/>
	<circle class="st4" cx="130.8" cy="121.4" r="3"/>
	<circle class="st4" cx="211.4" cy="85.1" r="3"/>
	<circle class="st4" cx="95.6" cy="88.1" r="3"/>
	<circle class="st4" cx="133.9" cy="13.6" r="3"/>
	<circle class="st4" cx="121.8" cy="112.3" r="3"/>
	<circle class="st4" cx="202.3" cy="94.2" r="3"/>
	<circle class="st4" cx="86.5" cy="97.2" r="3"/>
	<circle class="st4" cx="124.8" cy="4.5" r="3"/>
</g>
<g>
	<circle class="st4" cx="87" cy="434.4" r="3"/>
	<circle class="st4" cx="153.5" cy="363.9" r="3"/>
	<circle class="st4" cx="37.7" cy="366.9" r="3"/>
	<circle class="st4" cx="90" cy="326.7" r="3"/>
	<circle class="st4" cx="95.1" cy="424.4" r="3"/>
	<circle class="st4" cx="143.4" cy="355.9" r="3"/>
	<circle class="st4" cx="27.6" cy="358.9" r="3"/>
	<circle class="st4" cx="98.1" cy="316.6" r="3"/>
	<circle class="st4" cx="86" cy="415.3" r="3"/>
	<circle class="st4" cx="134.3" cy="364.9" r="3"/>
	<circle class="st4" cx="18.5" cy="368" r="3"/>
	<circle class="st4" cx="89" cy="307.5" r="3"/>
	<circle class="st4" cx="103.1" cy="434.4" r="3"/>
	<circle class="st4" cx="45.7" cy="327.7" r="3"/>
	<circle class="st4" cx="24.6" cy="308.5" r="3"/>
	<circle class="st4" cx="18.5" cy="318.6" r="3"/>
	<circle class="st4" cx="153.5" cy="347.8" r="3"/>
	<circle class="st4" cx="37.7" cy="350.8" r="3"/>
	<circle class="st4" cx="106.1" cy="326.7" r="3"/>
	<circle class="st4" cx="111.2" cy="424.4" r="3"/>
	<circle class="st4" cx="143.4" cy="339.7" r="3"/>
	<circle class="st4" cx="27.6" cy="342.8" r="3"/>
	<circle class="st4" cx="114.2" cy="316.6" r="3"/>
	<circle class="st4" cx="102.1" cy="415.3" r="3"/>
	<circle class="st4" cx="134.3" cy="348.8" r="3"/>
	<circle class="st4" cx="18.5" cy="351.8" r="3"/>
	<circle class="st4" cx="105.1" cy="307.5" r="3"/>
	<circle class="st4" cx="119.2" cy="434.4" r="3"/>
	<circle class="st4" cx="153.5" cy="331.7" r="3"/>
	<circle class="st4" cx="37.7" cy="334.7" r="3"/>
	<circle class="st4" cx="122.3" cy="326.7" r="3"/>
	<circle class="st4" cx="127.3" cy="424.4" r="3"/>
	<circle class="st4" cx="143.4" cy="323.6" r="3"/>
	<circle class="st4" cx="153.5" cy="315.6" r="3"/>
	<circle class="st4" cx="138.4" cy="307.5" r="3"/>
	<circle class="st4" cx="27.6" cy="326.7" r="3"/>
	<circle class="st4" cx="130.3" cy="316.6" r="3"/>
	<circle class="st4" cx="118.2" cy="415.3" r="3"/>
	<circle class="st4" cx="134.3" cy="332.7" r="3"/>
	<circle class="st4" cx="18.5" cy="335.7" r="3"/>
	<circle class="st4" cx="121.3" cy="307.5" r="3"/>
	<circle class="st4" cx="70.9" cy="434.4" r="3"/>
	<circle class="st4" cx="153.5" cy="380" r="3"/>
	<circle class="st4" cx="37.7" cy="383.1" r="3"/>
	<circle class="st4" cx="73.9" cy="326.7" r="3"/>
	<circle class="st4" cx="78.9" cy="424.4" r="3"/>
	<circle class="st4" cx="143.4" cy="372" r="3"/>
	<circle class="st4" cx="27.6" cy="375" r="3"/>
	<circle class="st4" cx="82" cy="316.6" r="3"/>
	<circle class="st4" cx="69.9" cy="415.3" r="3"/>
	<circle class="st4" cx="134.3" cy="381" r="3"/>
	<circle class="st4" cx="18.5" cy="384.1" r="3"/>
	<circle class="st4" cx="72.9" cy="307.5" r="3"/>
	<circle class="st4" cx="38.7" cy="434.4" r="3"/>
	<circle class="st4" cx="153.5" cy="412.3" r="3"/>
	<circle class="st4" cx="143.4" cy="424.4" r="3"/>
	<circle class="st4" cx="134.3" cy="434.4" r="3"/>
	<circle class="st4" cx="35.6" cy="316.6" r="3"/>
	<circle class="st4" cx="37.7" cy="415.3" r="3"/>
	<circle class="st4" cx="27.6" cy="427.4" r="3"/>
	<circle class="st4" cx="46.7" cy="424.4" r="3"/>
	<circle class="st4" cx="143.4" cy="404.2" r="3"/>
	<circle class="st4" cx="27.6" cy="407.2" r="3"/>
	<circle class="st4" cx="49.7" cy="316.6" r="3"/>
	<circle class="st4" cx="37.7" cy="415.3" r="3"/>
	<circle class="st4" cx="134.3" cy="413.3" r="3"/>
	<circle class="st4" cx="18.5" cy="416.3" r="3"/>
	<circle class="st4" cx="40.7" cy="307.5" r="3"/>
	<circle class="st4" cx="54.8" cy="434.4" r="3"/>
	<circle class="st4" cx="153.5" cy="396.2" r="3"/>
	<circle class="st4" cx="37.7" cy="399.2" r="3"/>
	<circle class="st4" cx="57.8" cy="326.7" r="3"/>
	<circle class="st4" cx="62.8" cy="424.4" r="3"/>
	<circle class="st4" cx="143.4" cy="388.1" r="3"/>
	<circle class="st4" cx="27.6" cy="391.1" r="3"/>
	
		<ellipse transform="matrix(0.9985 -5.530046e-02 5.530046e-02 0.9985 -17.4064 4.1263)" class="st4" cx="65.9" cy="316.6" rx="3" ry="3"/>
	<circle class="st4" cx="53.8" cy="415.3" r="3"/>
	<circle class="st4" cx="134.3" cy="397.2" r="3"/>
	<circle class="st4" cx="18.5" cy="400.2" r="3"/>
	<circle class="st4" cx="56.8" cy="307.5" r="3"/>
</g>
<g>
	<circle class="st4" cx="829" cy="211.4" r="3"/>
	<circle class="st4" cx="895.5" cy="140.9" r="3"/>
	<circle class="st4" cx="779.7" cy="143.9" r="3"/>
	<circle class="st4" cx="832" cy="103.7" r="3"/>
	<circle class="st4" cx="837.1" cy="201.4" r="3"/>
	<circle class="st4" cx="885.4" cy="132.9" r="3"/>
	<circle class="st4" cx="769.6" cy="135.9" r="3"/>
	<circle class="st4" cx="840.1" cy="93.6" r="3"/>
	<circle class="st4" cx="828" cy="192.3" r="3"/>
	<circle class="st4" cx="876.3" cy="141.9" r="3"/>
	<circle class="st4" cx="760.5" cy="144.9" r="3"/>
	<circle class="st4" cx="831" cy="84.5" r="3"/>
	<circle class="st4" cx="845.1" cy="211.4" r="3"/>
	<circle class="st4" cx="787.7" cy="104.7" r="3"/>
	<circle class="st4" cx="766.6" cy="85.5" r="3"/>
	<circle class="st4" cx="760.5" cy="95.6" r="3"/>
	<circle class="st4" cx="895.5" cy="124.8" r="3"/>
	<circle class="st4" cx="779.7" cy="127.8" r="3"/>
	<circle class="st4" cx="848.1" cy="103.7" r="3"/>
	<circle class="st4" cx="853.2" cy="201.4" r="3"/>
	<circle class="st4" cx="885.4" cy="116.7" r="3"/>
	<circle class="st4" cx="769.6" cy="119.8" r="3"/>
	<circle class="st4" cx="856.2" cy="93.6" r="3"/>
	<circle class="st4" cx="844.1" cy="192.3" r="3"/>
	<circle class="st4" cx="876.3" cy="125.8" r="3"/>
	<circle class="st4" cx="760.5" cy="128.8" r="3"/>
	<circle class="st4" cx="847.1" cy="84.5" r="3"/>
	<circle class="st4" cx="861.2" cy="211.4" r="3"/>
	<circle class="st4" cx="895.5" cy="108.7" r="3"/>
	<circle class="st4" cx="779.7" cy="111.7" r="3"/>
	<circle class="st4" cx="864.3" cy="103.7" r="3"/>
	<circle class="st4" cx="869.3" cy="201.4" r="3"/>
	<circle class="st4" cx="885.4" cy="100.6" r="3"/>
	<circle class="st4" cx="895.5" cy="92.6" r="3"/>
	<circle class="st4" cx="880.4" cy="84.5" r="3"/>
	<circle class="st4" cx="769.6" cy="103.7" r="3"/>
	<circle class="st4" cx="872.3" cy="93.6" r="3"/>
	<circle class="st4" cx="860.2" cy="192.3" r="3"/>
	<circle class="st4" cx="876.3" cy="109.7" r="3"/>
	<circle class="st4" cx="760.5" cy="112.7" r="3"/>
	<circle class="st4" cx="863.3" cy="84.5" r="3"/>
	<circle class="st4" cx="812.9" cy="211.4" r="3"/>
	<circle class="st4" cx="895.5" cy="157" r="3"/>
	<circle class="st4" cx="779.7" cy="160.1" r="3"/>
	<circle class="st4" cx="815.9" cy="103.7" r="3"/>
	<circle class="st4" cx="821" cy="201.4" r="3"/>
	<circle class="st4" cx="885.4" cy="149" r="3"/>
	<circle class="st4" cx="769.6" cy="152" r="3"/>
	<circle class="st4" cx="824" cy="93.6" r="3"/>
	<circle class="st4" cx="811.9" cy="192.3" r="3"/>
	<circle class="st4" cx="876.3" cy="158" r="3"/>
	<circle class="st4" cx="760.5" cy="161.1" r="3"/>
	<circle class="st4" cx="814.9" cy="84.5" r="3"/>
	<circle class="st4" cx="780.7" cy="211.4" r="3"/>
	<circle class="st4" cx="895.5" cy="189.3" r="3"/>
	<circle class="st4" cx="885.4" cy="201.4" r="3"/>
	<circle class="st4" cx="876.3" cy="211.4" r="3"/>
	<circle class="st4" cx="777.6" cy="93.6" r="3"/>
	<circle class="st4" cx="779.7" cy="192.3" r="3"/>
	<circle class="st4" cx="769.6" cy="204.4" r="3"/>
	<circle class="st4" cx="788.7" cy="201.4" r="3"/>
	<circle class="st4" cx="885.4" cy="181.2" r="3"/>
	<circle class="st4" cx="769.6" cy="184.2" r="3"/>
	<circle class="st4" cx="791.7" cy="93.6" r="3"/>
	<circle class="st4" cx="779.7" cy="192.3" r="3"/>
	<circle class="st4" cx="876.3" cy="190.3" r="3"/>
	<circle class="st4" cx="760.5" cy="193.3" r="3"/>
	<circle class="st4" cx="782.7" cy="84.5" r="3"/>
	<circle class="st4" cx="796.8" cy="211.4" r="3"/>
	<circle class="st4" cx="895.5" cy="173.2" r="3"/>
	<circle class="st4" cx="779.7" cy="176.2" r="3"/>
	<circle class="st4" cx="799.8" cy="103.7" r="3"/>
	<circle class="st4" cx="804.8" cy="201.4" r="3"/>
	<circle class="st4" cx="885.4" cy="165.1" r="3"/>
	<circle class="st4" cx="769.6" cy="168.1" r="3"/>
	<circle class="st4" cx="807.9" cy="93.6" r="3"/>
	<circle class="st4" cx="795.8" cy="192.3" r="3"/>
	<circle class="st4" cx="876.3" cy="174.2" r="3"/>
	<circle class="st4" cx="760.5" cy="177.2" r="3"/>
	<circle class="st4" cx="798.8" cy="84.5" r="3"/>
</g>
<g>
	<circle class="st4" cx="858" cy="449.4" r="3"/>
	<circle class="st4" cx="924.5" cy="378.9" r="3"/>
	<circle class="st4" cx="808.7" cy="381.9" r="3"/>
	<circle class="st4" cx="861" cy="341.7" r="3"/>
	<circle class="st4" cx="866.1" cy="439.4" r="3"/>
	<circle class="st4" cx="914.4" cy="370.9" r="3"/>
	<circle class="st4" cx="798.6" cy="373.9" r="3"/>
	<circle class="st4" cx="869.1" cy="331.6" r="3"/>
	<circle class="st4" cx="857" cy="430.3" r="3"/>
	<circle class="st4" cx="905.3" cy="379.9" r="3"/>
	<circle class="st4" cx="789.5" cy="383" r="3"/>
	<circle class="st4" cx="860" cy="322.5" r="3"/>
	<circle class="st4" cx="874.1" cy="449.4" r="3"/>
	<circle class="st4" cx="816.7" cy="342.7" r="3"/>
	<circle class="st4" cx="795.6" cy="323.5" r="3"/>
	<circle class="st4" cx="789.5" cy="333.6" r="3"/>
	<circle class="st4" cx="924.5" cy="362.8" r="3"/>
	<circle class="st4" cx="808.7" cy="365.8" r="3"/>
	<circle class="st4" cx="877.1" cy="341.7" r="3"/>
	<circle class="st4" cx="882.2" cy="439.4" r="3"/>
	<circle class="st4" cx="914.4" cy="354.7" r="3"/>
	<circle class="st4" cx="798.6" cy="357.8" r="3"/>
	<circle class="st4" cx="885.2" cy="331.6" r="3"/>
	<circle class="st4" cx="873.1" cy="430.3" r="3"/>
	<circle class="st4" cx="905.3" cy="363.8" r="3"/>
	<circle class="st4" cx="789.5" cy="366.8" r="3"/>
	<circle class="st4" cx="876.1" cy="322.5" r="3"/>
	<circle class="st4" cx="890.2" cy="449.4" r="3"/>
	<circle class="st4" cx="924.5" cy="346.7" r="3"/>
	<circle class="st4" cx="808.7" cy="349.7" r="3"/>
	<circle class="st4" cx="893.3" cy="341.7" r="3"/>
	<circle class="st4" cx="898.3" cy="439.4" r="3"/>
	<circle class="st4" cx="914.4" cy="338.6" r="3"/>
	<circle class="st4" cx="924.5" cy="330.6" r="3"/>
	<circle class="st4" cx="909.4" cy="322.5" r="3"/>
	<circle class="st4" cx="798.6" cy="341.7" r="3"/>
	<circle class="st4" cx="901.3" cy="331.6" r="3"/>
	<circle class="st4" cx="889.2" cy="430.3" r="3"/>
	<circle class="st4" cx="905.3" cy="347.7" r="3"/>
	<circle class="st4" cx="789.5" cy="350.7" r="3"/>
	<circle class="st4" cx="892.3" cy="322.5" r="3"/>
	<circle class="st4" cx="841.9" cy="449.4" r="3"/>
	<circle class="st4" cx="924.5" cy="395" r="3"/>
	<circle class="st4" cx="808.7" cy="398.1" r="3"/>
	<circle class="st4" cx="844.9" cy="341.7" r="3"/>
	<circle class="st4" cx="850" cy="439.4" r="3"/>
	<circle class="st4" cx="914.4" cy="387" r="3"/>
	<circle class="st4" cx="798.6" cy="390" r="3"/>
	<circle class="st4" cx="853" cy="331.6" r="3"/>
	<circle class="st4" cx="840.9" cy="430.3" r="3"/>
	<circle class="st4" cx="905.3" cy="396" r="3"/>
	<circle class="st4" cx="789.5" cy="399.1" r="3"/>
	<circle class="st4" cx="843.9" cy="322.5" r="3"/>
	<circle class="st4" cx="809.7" cy="449.4" r="3"/>
	<circle class="st4" cx="924.5" cy="427.3" r="3"/>
	<circle class="st4" cx="914.4" cy="439.4" r="3"/>
	<circle class="st4" cx="905.3" cy="449.4" r="3"/>
	<circle class="st4" cx="806.6" cy="331.6" r="3"/>
	<circle class="st4" cx="808.7" cy="430.3" r="3"/>
	<circle class="st4" cx="798.6" cy="442.4" r="3"/>
	<circle class="st4" cx="817.7" cy="439.4" r="3"/>
	<circle class="st4" cx="914.4" cy="419.2" r="3"/>
	<circle class="st4" cx="798.6" cy="422.2" r="3"/>
	<circle class="st4" cx="820.7" cy="331.6" r="3"/>
	<circle class="st4" cx="808.7" cy="430.3" r="3"/>
	<circle class="st4" cx="905.3" cy="428.3" r="3"/>
	<circle class="st4" cx="789.5" cy="431.3" r="3"/>
	<circle class="st4" cx="811.7" cy="322.5" r="3"/>
	<circle class="st4" cx="825.8" cy="449.4" r="3"/>
	<circle class="st4" cx="924.5" cy="411.2" r="3"/>
	<circle class="st4" cx="808.7" cy="414.2" r="3"/>
	<circle class="st4" cx="828.8" cy="341.7" r="3"/>
	<circle class="st4" cx="833.8" cy="439.4" r="3"/>
	<circle class="st4" cx="914.4" cy="403.1" r="3"/>
	<circle class="st4" cx="798.6" cy="406.1" r="3"/>
	<circle class="st4" cx="836.9" cy="331.6" r="3"/>
	<circle class="st4" cx="824.8" cy="430.3" r="3"/>
	<circle class="st4" cx="905.3" cy="412.2" r="3"/>
	<circle class="st4" cx="789.5" cy="415.2" r="3"/>
	<circle class="st4" cx="827.8" cy="322.5" r="3"/>
</g>
<g>
	<line class="st5" x1="189.5" y1="586" x2="189.5" y2="552"/>
</g>
<g>
	<line class="st5" x1="192" y1="554.5" x2="147" y2="554.5"/>
</g>
<g>
	<line class="st5" x1="189.5" y1="586" x2="189.5" y2="612"/>
</g>
<g>
	<line class="st5" x1="192" y1="612.5" x2="145" y2="612.5"/>
</g>
<g>
	<line class="st5" x1="739.5" y1="396" x2="739.5" y2="362"/>
</g>
<g>
	<line class="st5" x1="738.1" y1="364.5" x2="785.8" y2="364.5"/>
</g>
<g>
	<line class="st5" x1="739.8" y1="394" x2="739.8" y2="420"/>
</g>
<g>
	<line class="st5" x1="739.1" y1="417.5" x2="789" y2="417.5"/>
</g>
<g>
	<line class="st5" x1="269.5" y1="66" x2="269.5" y2="32"/>
</g>
<g>
	<line class="st5" x1="271" y1="34.5" x2="226.9" y2="34.5"/>
</g>
<g>
	<line class="st5" x1="269.6" y1="64" x2="269.6" y2="90"/>
</g>
<g>
	<line class="st5" x1="270" y1="87.5" x2="224" y2="87.5"/>
</g>
<g>
	<circle class="st4" cx="77" cy="648.4" r="3"/>
	<circle class="st4" cx="143.5" cy="577.9" r="3"/>
	<circle class="st4" cx="27.7" cy="580.9" r="3"/>
	<circle class="st4" cx="80" cy="540.7" r="3"/>
	<circle class="st4" cx="85.1" cy="638.4" r="3"/>
	<circle class="st4" cx="133.4" cy="569.9" r="3"/>
	<circle class="st4" cx="17.6" cy="572.9" r="3"/>
	<circle class="st4" cx="88.1" cy="530.6" r="3"/>
	<circle class="st4" cx="76" cy="629.3" r="3"/>
	<circle class="st4" cx="124.3" cy="578.9" r="3"/>
	<circle class="st4" cx="8.5" cy="582" r="3"/>
	<circle class="st4" cx="79" cy="521.5" r="3"/>
	<circle class="st4" cx="93.1" cy="648.4" r="3"/>
	<circle class="st4" cx="35.7" cy="541.7" r="3"/>
	<circle class="st4" cx="14.6" cy="522.5" r="3"/>
	<circle class="st4" cx="8.5" cy="532.6" r="3"/>
	<circle class="st4" cx="143.5" cy="561.8" r="3"/>
	<circle class="st4" cx="27.7" cy="564.8" r="3"/>
	<circle class="st4" cx="96.1" cy="540.7" r="3"/>
	<circle class="st4" cx="101.2" cy="638.4" r="3"/>
	<circle class="st4" cx="133.4" cy="553.7" r="3"/>
	<circle class="st4" cx="17.6" cy="556.8" r="3"/>
	<circle class="st4" cx="104.2" cy="530.6" r="3"/>
	<circle class="st4" cx="92.1" cy="629.3" r="3"/>
	<circle class="st4" cx="124.3" cy="562.8" r="3"/>
	<circle class="st4" cx="8.5" cy="565.8" r="3"/>
	<circle class="st4" cx="95.1" cy="521.5" r="3"/>
	<circle class="st4" cx="109.2" cy="648.4" r="3"/>
	<circle class="st4" cx="143.5" cy="545.7" r="3"/>
	<circle class="st4" cx="27.7" cy="548.7" r="3"/>
	<circle class="st4" cx="112.3" cy="540.7" r="3"/>
	<circle class="st4" cx="117.3" cy="638.4" r="3"/>
	<circle class="st4" cx="133.4" cy="537.6" r="3"/>
	<circle class="st4" cx="143.5" cy="529.6" r="3"/>
	<circle class="st4" cx="128.4" cy="521.5" r="3"/>
	<circle class="st4" cx="17.6" cy="540.7" r="3"/>
	<circle class="st4" cx="120.3" cy="530.6" r="3"/>
	<circle class="st4" cx="108.2" cy="629.3" r="3"/>
	<circle class="st4" cx="124.3" cy="546.7" r="3"/>
	<circle class="st4" cx="8.5" cy="549.7" r="3"/>
	<circle class="st4" cx="111.3" cy="521.5" r="3"/>
	<circle class="st4" cx="60.9" cy="648.4" r="3"/>
	<circle class="st4" cx="143.5" cy="594" r="3"/>
	<circle class="st4" cx="27.7" cy="597.1" r="3"/>
	<circle class="st4" cx="63.9" cy="540.7" r="3"/>
	<circle class="st4" cx="68.9" cy="638.4" r="3"/>
	<circle class="st4" cx="133.4" cy="586" r="3"/>
	<circle class="st4" cx="17.6" cy="589" r="3"/>
	<circle class="st4" cx="72" cy="530.6" r="3"/>
	<circle class="st4" cx="59.9" cy="629.3" r="3"/>
	<circle class="st4" cx="124.3" cy="595" r="3"/>
	<circle class="st4" cx="8.5" cy="598.1" r="3"/>
	<circle class="st4" cx="62.9" cy="521.5" r="3"/>
	<circle class="st4" cx="28.7" cy="648.4" r="3"/>
	<circle class="st4" cx="143.5" cy="626.3" r="3"/>
	<circle class="st4" cx="133.4" cy="638.4" r="3"/>
	<circle class="st4" cx="124.3" cy="648.4" r="3"/>
	<circle class="st4" cx="25.6" cy="530.6" r="3"/>
	<circle class="st4" cx="27.7" cy="629.3" r="3"/>
	<circle class="st4" cx="17.6" cy="641.4" r="3"/>
	<circle class="st4" cx="36.7" cy="638.4" r="3"/>
	<circle class="st4" cx="133.4" cy="618.2" r="3"/>
	<circle class="st4" cx="17.6" cy="621.2" r="3"/>
	<circle class="st4" cx="39.7" cy="530.6" r="3"/>
	<circle class="st4" cx="27.7" cy="629.3" r="3"/>
	<circle class="st4" cx="124.3" cy="627.3" r="3"/>
	<circle class="st4" cx="8.5" cy="630.3" r="3"/>
	
		<ellipse transform="matrix(1.162551e-02 -0.9999 0.9999 1.162551e-02 -491.1628 546.1277)" class="st4" cx="30.7" cy="521.5" rx="3" ry="3"/>
	<circle class="st4" cx="44.8" cy="648.4" r="3"/>
	<circle class="st4" cx="143.5" cy="610.2" r="3"/>
	<circle class="st4" cx="27.7" cy="613.2" r="3"/>
	<circle class="st4" cx="47.8" cy="540.7" r="3"/>
	<circle class="st4" cx="52.8" cy="638.4" r="3"/>
	<circle class="st4" cx="133.4" cy="602.1" r="3"/>
	<circle class="st4" cx="17.6" cy="605.1" r="3"/>
	<circle class="st4" cx="55.9" cy="530.6" r="3"/>
	<circle class="st4" cx="43.8" cy="629.3" r="3"/>
	<circle class="st4" cx="124.3" cy="611.2" r="3"/>
	<circle class="st4" cx="8.5" cy="614.2" r="3"/>
	<circle class="st4" cx="46.8" cy="521.5" r="3"/>
</g>
</svg>
